<svg width="16" height="16" viewBox="0 0 16 16" fill="none" xmlns="http://www.w3.org/2000/svg">
<path d="M5.99999 6.66667C6.73637 6.66667 7.33332 6.06971 7.33332 5.33333C7.33332 4.59695 6.73637 4 5.99999 4C5.26361 4 4.66666 4.59695 4.66666 5.33333C4.66666 6.06971 5.26361 6.66667 5.99999 6.66667Z" stroke="#787486" stroke-width="1.5" stroke-linecap="round" stroke-linejoin="round"/>
<path d="M8.66668 1.33337H6.00001C2.66668 1.33337 1.33334 2.66671 1.33334 6.00004V10C1.33334 13.3334 2.66668 14.6667 6.00001 14.6667H10C13.3333 14.6667 14.6667 13.3334 14.6667 10V6.66671" stroke="#787486" stroke-width="1.5" stroke-linecap="round" stroke-linejoin="round"/>
<path d="M12 5.33337V1.33337L13.3333 2.66671" stroke="#787486" stroke-width="1.5" stroke-linecap="round" stroke-linejoin="round"/>
<path d="M12 1.33337L10.6667 2.66671" stroke="#787486" stroke-width="1.5" stroke-linecap="round" stroke-linejoin="round"/>
<path d="M1.78 12.6333L5.06667 10.4266C5.59333 10.0733 6.35333 10.1133 6.82667 10.52L7.04667 10.7133C7.56667 11.16 8.40667 11.16 8.92667 10.7133L11.7 8.33329C12.22 7.88662 13.06 7.88662 13.58 8.33329L14.6667 9.26662" stroke="#787486" stroke-width="1.5" stroke-linecap="round" stroke-linejoin="round"/>
</svg>
