<svg width="24" height="24" viewBox="0 0 24 24" fill="none" xmlns="http://www.w3.org/2000/svg">
<path d="M18.32 12.75H15C12.51 12.75 11.25 11.34 11.25 8.55001V5.68001C11.25 4.66001 11.37 3.20001 12.43 2.40001C13.32 1.74001 14.6 1.69001 16.49 2.24001C18.97 2.96001 21.04 5.03001 21.76 7.51001C22.31 9.39001 22.26 10.68 21.6 11.56C20.8 12.63 19.34 12.75 18.32 12.75ZM14.28 3.36001C13.87 3.36001 13.55 3.44001 13.34 3.60001C12.95 3.89001 12.76 4.57001 12.76 5.68001V8.56001C12.76 10.8 13.62 11.26 15.01 11.26H18.33C19.43 11.26 20.11 11.07 20.41 10.68C20.76 10.22 20.73 9.30001 20.34 7.95001C19.76 5.98001 18.06 4.27001 16.09 3.70001C15.35 3.47001 14.75 3.36001 14.28 3.36001Z" fill="#787486"/>
<path d="M11.07 22.75C10.54 22.75 10 22.71 9.46 22.62C5.37 21.96 2.04 18.64 1.38 14.55C0.530005 9.29 3.92 4.33 9.11 3.27C9.52 3.19 9.91 3.45 10 3.85C10.08 4.26 9.82 4.65 9.42 4.74C5.03 5.64 2.15 9.84 2.88 14.31C3.44 17.77 6.25 20.58 9.71 21.14C14.2 21.86 18.39 18.97 19.28 14.56C19.36 14.15 19.76 13.89 20.16 13.97C20.57 14.05 20.83 14.45 20.75 14.85C19.8 19.52 15.72 22.75 11.07 22.75Z" fill="#787486"/>
</svg>
